<?xml version="1.0" encoding="UTF-8"?>
<svg id="Layer_2" data-name="Layer 2" xmlns="http://www.w3.org/2000/svg" viewBox="0 0 1920 1080">
  <path d="M0,0v1080h1920V0H0ZM370,923H50v-240h320v240ZM370,670H50v-240h320v240ZM370,417H50v-240h320v240ZM716,923h-320v-240h320v240ZM716,670h-320v-240h320v240ZM716,417h-320v-240h320v240ZM1062,923h-320v-240h320v240ZM1062,670h-320v-240h320v240ZM1062,417h-320v-240h320v240ZM1408,923h-320v-240h320v240ZM1408,670h-320v-240h320v240ZM1408,417h-320v-240h320v240Z"/>
</svg>